<?xml version="1.0" encoding="utf-8"?>
<!-- Generator: Adobe Illustrator 28.2.0, SVG Export Plug-In . SVG Version: 6.00 Build 0)  -->
<svg version="1.1" id="レイヤー_1" xmlns="http://www.w3.org/2000/svg" xmlns:xlink="http://www.w3.org/1999/xlink" x="0px"
	 y="0px" viewBox="0 0 560 430" style="enable-background:new 0 0 560 430;" xml:space="preserve">
<style type="text/css">
	.st0{fill:#7A4A2E;}
	.st1{fill:#FDF9F6;stroke:#2E1A0E;stroke-width:2.5;}
	.st2{fill:#DDD4CC;}
	.st3{fill:#F9EDE6;}
	.st4{fill:#E8C0A8;}
	.st5{fill:#D65200;fill-opacity:0.55;}
	.st6{fill:#E0CFC4;}
	.st7{fill:#FDF9F6;stroke:#E0D8D0;stroke-width:1.5;}
	.st8{fill:#FDF9F6;stroke:#E0D8D0;stroke-width:1.5;stroke-linejoin:round;}
	.st9{fill:#D65200;}
	.st10{fill:#C48050;}
	.st11{fill:#D65200;fill-opacity:0.7;}
	.st12{fill:#DBA890;}
	.st13{opacity:0.9;fill:#D65200;enable-background:new    ;}
	.st14{opacity:0.65;fill:#D65200;enable-background:new    ;}
	.st15{fill:#E0A870;}
	.st16{fill:#FDF9F6;}
	.st17{fill:none;stroke:#E8D8CC;stroke-width:2;stroke-linecap:round;}
	.st18{fill:#D65200;fill-opacity:0.3;}
	.st19{fill:#D65200;fill-opacity:0.62;}
	.st20{fill:none;stroke:#E8956A;stroke-width:2.5;stroke-linecap:round;stroke-linejoin:round;}
	.st21{fill:#E8956A;}
</style>
<path class="st0" d="M103.6,294.6c7,73.6,16.5,149,32,234.5c12.1,64,23.9,111.6,31,143.5l38.6-6c-2.8-32.5-6-81.5-13.9-146.1
	c-11.2-86.1-25-160.9-40.6-233.2L103.6,294.6z"/>
<path class="st1" d="M66.6,91.6l57.9-9C134.6,81.1,144,88,145.6,98l26,167.3c1.6,10.1-5.3,19.5-15.4,21.1l-57.9,9
	c-10.1,1.6-19.5-5.3-21.1-15.4l-26-167.3C49.6,102.6,56.5,93.2,66.6,91.6z"/>
<path class="st2" d="M80.7,93.8l31.1-4.8c2.1-0.3,4,1.1,4.3,3.2l0,0c0.3,2.1-1.1,4-3.2,4.3l-31.1,4.8c-2.1,0.3-4-1.1-4.3-3.2l0,0
	C77.2,96.1,78.6,94.1,80.7,93.8z"/>
<path class="st3" d="M65.3,111.6l66.5-10.3c3-0.5,5.7,1.6,6.2,4.5l24.6,158.8c0.5,3-1.6,5.7-4.5,6.2l-66.5,10.3
	c-3,0.5-5.7-1.6-6.2-4.5L60.8,117.8C60.3,114.8,62.3,112,65.3,111.6z"/>
<circle class="st4" cx="105.5" cy="151.5" r="21.7"/>
<path class="st4" d="M86.5,198.4c14.9-17,32.1-19.6,51.5-8l3.8,24.7c-16.4,7.7-33.5,10.3-51.5,8L86.5,198.4z"/>
<path class="st5" d="M94.1,236.8l48.3-7.5c2.1-0.3,4,1.1,4.3,3.2l0,0c0.3,2.1-1.1,4-3.2,4.3l-48.3,7.5c-2.1,0.3-4-1.1-4.3-3.2l0,0
	C90.6,239,92,237.1,94.1,236.8z"/>
<path class="st6" d="M84.5,256.9l4.3-0.7c1.2-0.2,2.3,0.6,2.5,1.8l0.7,4.3c0.2,1.2-0.6,2.3-1.8,2.5l-4.3,0.7
	c-1.2,0.2-2.3-0.6-2.5-1.8l-0.7-4.3C82.6,258.2,83.4,257.1,84.5,256.9z"/>
<path class="st6" d="M96.5,256.1l42.9-6.7c1.2-0.2,2.3,0.6,2.5,1.8l0,0c0.2,1.2-0.6,2.3-1.8,2.5l-42.9,6.7c-1.2,0.2-2.3-0.6-2.5-1.8
	l0,0C94.5,257.4,95.3,256.3,96.5,256.1z"/>
<path class="st6" d="M86.7,270.8l4.3-0.7c1.2-0.2,2.3,0.6,2.5,1.8l0.7,4.3c0.2,1.2-0.6,2.3-1.8,2.5l-4.3,0.7
	c-1.2,0.2-2.3-0.6-2.5-1.8l-0.7-4.3C84.7,272.1,85.5,271,86.7,270.8z"/>
<path class="st6" d="M98.7,270.1l32.2-5c1.2-0.2,2.3,0.6,2.5,1.8l0,0c0.2,1.2-0.6,2.3-1.8,2.5l-32.2,5c-1.2,0.2-2.3-0.6-2.5-1.8l0,0
	C96.7,271.4,97.5,270.3,98.7,270.1z"/>
<path class="st2" d="M110,293.6l34.3-5.3c1.2-0.2,2.3,0.6,2.5,1.8l0,0c0.2,1.2-0.6,2.3-1.8,2.5l-34.3,5.3c-1.2,0.2-2.3-0.6-2.5-1.8
	l0,0C108,294.9,108.8,293.8,110,293.6z"/>
<path class="st0" d="M160.8,153.9L160.8,153.9c5.9-0.9,11.5,3.1,12.4,9.1l1.3,8.6c0.9,5.9-3.1,11.5-9.1,12.4l0,0
	c-5.9,0.9-11.5-3.1-12.4-9.1l-1.3-8.6C150.9,160.4,154.9,154.8,160.8,153.9z"/>
<path class="st0" d="M166.2,188.2L166.2,188.2c5.9-0.9,11.5,3.1,12.4,9.1l1.3,8.6c0.9,5.9-3.1,11.5-9.1,12.4l0,0
	c-5.9,0.9-11.5-3.1-12.4-9.1l-1.3-8.6C156.2,194.7,160.2,189.1,166.2,188.2z"/>
<path class="st0" d="M171.5,222.5L171.5,222.5c5.9-0.9,11.5,3.1,12.4,9.1l1,6.4c0.9,5.9-3.1,11.5-9.1,12.4l0,0
	c-5.9,0.9-11.5-3.1-12.4-9.1l-1-6.4C161.5,229,165.6,223.5,171.5,222.5z"/>
<path class="st0" d="M176.5,254.7L176.5,254.7c5.9-0.9,11.5,3.1,12.4,9.1l0.7,4.3c0.9,5.9-3.1,11.5-9.1,12.4l0,0
	c-5.9,0.9-11.5-3.1-12.4-9.1l-0.7-4.3C166.5,261.2,170.6,255.6,176.5,254.7z"/>
<path class="st7" d="M14.3,73.4l36.5-5.7c5.9-0.9,11.5,3.1,12.4,9.1L65.9,94c0.9,5.9-3.1,11.5-9.1,12.4L20.3,112
	c-5.9,0.9-11.5-3.1-12.4-9.1L5.3,85.7C4.3,79.8,8.4,74.3,14.3,73.4z"/>
<path class="st8" d="M50.2,106.2l6.5,13.3l-15-11.9"/>
<path class="st9" d="M41.1,85.9c-0.7-3.5-5.2-4.8-6.7-1.6c-2.6-2.7-6.4-0.4-5.8,3.1c0.9,4.7,7.8,7.5,7.8,7.5S42.1,90.6,41.1,85.9z"
	/>
<path class="st10" d="M244.4,261.7c-6.6,73.7-11.2,155-11.7,241.8c0.2,65.2,3.1,114.1,4.2,146.7l41.2,1.2
	c3.2-32.5,9-81.2,13.1-146.2c4.8-86.7,5.1-168.2,3-242.1L244.4,261.7z"/>
<path class="st1" d="M246.8,40.2l58.6,1.8c11.4,0.3,20.3,9.9,20,21.2l-5.5,180.1c-0.3,11.4-9.9,20.3-21.2,20l-58.6-1.8
	c-11.4-0.3-20.3-9.9-20-21.2l5.5-180.1C225.9,48.8,235.4,39.8,246.8,40.2z"/>
<path class="st2" d="M258.6,44.9l34.7,1.1c2.4,0.1,4.3,2.1,4.2,4.5l0,0c-0.1,2.4-2.1,4.3-4.5,4.2l-34.7-1.1
	c-2.4-0.1-4.3-2.1-4.2-4.5l0,0C254.2,46.7,256.2,44.8,258.6,44.9z"/>
<path class="st3" d="M239.6,60.6l71.6,2.2c3,0.1,5.4,2.6,5.3,5.6l-5.4,176.9c-0.1,3-2.6,5.4-5.6,5.3l-71.6-2.2
	c-3-0.1-5.4-2.6-5.3-5.6L234,65.9C234.1,62.9,236.6,60.5,239.6,60.6z"/>
<circle class="st4" cx="251.1" cy="76.2" r="10.9"/>
<path class="st6" d="M268.1,71.2l35.8,1.1c1.5,0,2.7,1.3,2.6,2.8l0,0c0,1.5-1.3,2.7-2.8,2.6l-35.8-1.1c-1.5,0-2.7-1.3-2.6-2.8l0,0
	C265.4,72.4,266.6,71.2,268.1,71.2z"/>
<path class="st6" d="M267.3,79.9l23.9,0.7c1.2,0,2.1,1,2.1,2.2l0,0c0,1.2-1,2.1-2.2,2.1l-23.9-0.7c-1.2,0-2.1-1-2.1-2.2l0,0
	C265.1,80.8,266.1,79.9,267.3,79.9z"/>
<circle class="st11" cx="305.4" cy="77.8" r="7.6"/>
<path class="st4" d="M237.5,94.2l73.8,2.2c2.4,0.1,4.3,2.1,4.2,4.5l-1.8,58.6c-0.1,2.4-2.1,4.3-4.5,4.2l-73.8-2.2
	c-2.4-0.1-4.3-2.1-4.2-4.5l1.8-58.6C233.1,96,235.1,94.1,237.5,94.2z"/>
<ellipse transform="matrix(0.1602 -0.9871 0.9871 0.1602 95.2616 369.3666)" class="st12" cx="264.7" cy="128.7" rx="21.7" ry="21.7"/>
<circle class="st12" cx="288.9" cy="119.7" r="14.1"/>
<circle class="st12" cx="294.8" cy="139.4" r="9.8"/>
<circle class="st6" cx="240.5" cy="174.7" r="8.7"/>
<path class="st6" d="M254.8,169.7l47.7,1.4c1.2,0,2.1,1,2.1,2.2l0,0c0,1.2-1,2.1-2.2,2.1l-47.7-1.4c-1.2,0-2.1-1-2.1-2.2l0,0
	C252.6,170.6,253.6,169.6,254.8,169.7z"/>
<path class="st6" d="M254.6,177.3l34.7,1.1c1.2,0,2.1,1,2.1,2.2l0,0c0,1.2-1,2.1-2.2,2.1l-34.7-1.1c-1.2,0-2.1-1-2.1-2.2l0,0
	C252.4,178.2,253.4,177.2,254.6,177.3z"/>
<path class="st6" d="M232.3,194l69.4,2.1c1.2,0,2.1,1,2.1,2.2l0,0c0,1.2-1,2.1-2.2,2.1l-69.4-2.1c-1.2,0-2.1-1-2.1-2.2l0,0
	C230.1,194.9,231.1,193.9,232.3,194z"/>
<path class="st6" d="M232.1,202.6l52.1,1.6c1.2,0,2.1,1,2.1,2.2l0,0c0,1.2-1,2.1-2.2,2.1L232,207c-1.2,0-2.1-1-2.1-2.2l0,0
	C229.9,203.5,230.9,202.6,232.1,202.6z"/>
<path class="st6" d="M231.8,211.3l39.1,1.2c1.2,0,2.1,1,2.1,2.2l0,0c0,1.2-1,2.1-2.2,2.1l-39.1-1.2c-1.2,0-2.1-1-2.1-2.2l0,0
	C229.6,212.2,230.6,211.3,231.8,211.3z"/>
<path class="st2" d="M249.9,259.7l39.1,1.2c1.2,0,2.1,1,2.1,2.2l0,0c0,1.2-1,2.1-2.2,2.1l-39.1-1.2c-1.2,0-2.1-1-2.1-2.2l0,0
	C247.7,260.6,248.7,259.6,249.9,259.7z"/>
<path class="st10" d="M332.3,121L332.3,121c6,0.2,10.7,5.2,10.5,11.2l-0.3,8.7c-0.2,6-5.2,10.7-11.2,10.5l0,0
	c-6-0.2-10.7-5.2-10.5-11.2l0.3-8.7C321.3,125.5,326.3,120.8,332.3,121z"/>
<path class="st10" d="M331.2,155.7L331.2,155.7c6,0.2,10.7,5.2,10.5,11.2l-0.3,8.7c-0.2,6-5.2,10.7-11.2,10.5l0,0
	c-6-0.2-10.7-5.2-10.5-11.2l0.3-8.7C320.3,160.2,325.3,155.5,331.2,155.7z"/>
<path class="st10" d="M330.2,190.4L330.2,190.4c6,0.2,10.7,5.2,10.5,11.2l-0.2,6.5c-0.2,6-5.2,10.7-11.2,10.5l0,0
	c-6-0.2-10.7-5.2-10.5-11.2l0.2-6.5C319.2,194.9,324.2,190.2,330.2,190.4z"/>
<path class="st10" d="M329.2,223L329.2,223c6,0.2,10.7,5.2,10.5,11.2l-0.1,4.3c-0.2,6-5.2,10.7-11.2,10.5l0,0
	c-6-0.2-10.7-5.2-10.5-11.2l0.1-4.3C318.2,227.5,323.2,222.8,329.2,223z"/>
<path class="st13" d="M348.8,48.4c1.6-4-1.7-7.6-4.9-5.4c-0.8-3.8-5.7-3.4-7.3,0.7c-2,5.1,2.5,11.5,2.5,11.5S346.9,53.4,348.8,48.4z
	"/>
<path class="st14" d="M353.9,65.7c0.8-3.7-2.1-6-4.2-3.7c-1-3-4.6-2.1-5.3,1.6c-0.9,4.2,3.2,8.4,3.2,8.4S353,70,353.9,65.7z"/>
<path class="st15" d="M400.6,293.8c-15,72.4-28.2,147.3-37.9,228.1c-7.3,64.8-10.1,113.7-12.4,144.1l38.7,5.7
	c6.6-29.8,18-77.5,29.6-141.6c14-80.2,22.9-155.7,29.4-229.4L400.6,293.8z"/>
<path class="st1" d="M425.2,88.9l58,8.5c10.1,1.5,17.1,10.9,15.6,20.9l-24.6,167.5c-1.5,10.1-10.9,17.1-20.9,15.6l-58-8.5
	c-10.1-1.5-17.1-10.9-15.6-20.9l24.6-167.5C405.8,94.4,415.1,87.4,425.2,88.9z"/>
<path class="st2" d="M438,95.2l31.1,4.6c2.1,0.3,3.5,2.2,3.2,4.3l0,0c-0.3,2.1-2.2,3.5-4.3,3.2l-31.1-4.6c-2.1-0.3-3.5-2.2-3.2-4.3
	l0,0C434,96.3,435.9,94.9,438,95.2z"/>
<path class="st16" d="M418.1,107.6l66.6,9.8c3,0.4,5,3.2,4.6,6.2l-23.4,158.9c-0.4,3-3.2,5-6.2,4.6l-66.6-9.8c-3-0.4-5-3.2-4.6-6.2
	l23.4-158.9C412.4,109.2,415.1,107.2,418.1,107.6z"/>
<line class="st17" x1="423.7" y1="121.6" x2="403.8" y2="256.9"/>
<line class="st17" x1="403.8" y1="256.9" x2="463.9" y2="265.8"/>
<path class="st18" d="M422.3,198.2l10.7,1.6c1.8,0.3,3,1.9,2.7,3.7l-7.9,53.7c-0.3,1.8-1.9,3-3.7,2.7l-10.7-1.6
	c-1.8-0.3-3-1.9-2.7-3.7l7.9-53.7C418.9,199.2,420.5,197.9,422.3,198.2z"/>
<path class="st19" d="M446.2,177.6l10.7,1.6c1.8,0.3,3,1.9,2.7,3.7l-11.4,77.3c-0.3,1.8-1.9,3-3.7,2.7l-10.7-1.6
	c-1.8-0.3-3-1.9-2.7-3.7l11.4-77.3C442.8,178.5,444.4,177.3,446.2,177.6z"/>
<path class="st9" d="M470.4,154.8l10.7,1.6c1.8,0.3,3,1.9,2.7,3.7l-15.2,103.1c-0.3,1.8-1.9,3-3.7,2.7l-10.7-1.6
	c-1.8-0.3-3-1.9-2.7-3.7l15.2-103.1C467,155.8,468.6,154.5,470.4,154.8z"/>
<polyline class="st20" points="426.7,205.4 450.3,187 474.5,164.2 "/>
<circle class="st21" cx="426.7" cy="205.4" r="4.3"/>
<circle class="st21" cx="450.3" cy="187" r="4.3"/>
<circle class="st21" cx="474.5" cy="164.2" r="4.3"/>
<path class="st2" d="M407,294.7l34.4,5.1c1.2,0.2,2,1.3,1.8,2.5l0,0c-0.2,1.2-1.3,2-2.5,1.8l-34.4-5.1c-1.2-0.2-2-1.3-1.8-2.5l0,0
	C404.7,295.3,405.8,294.5,407,294.7z"/>
<path class="st15" d="M389.5,160.5L389.5,160.5c5.9,0.9,10,6.4,9.2,12.3l-1.3,8.6c-0.9,5.9-6.4,10-12.3,9.2l0,0
	c-5.9-0.9-10-6.4-9.2-12.3l1.3-8.6C378,163.7,383.5,159.6,389.5,160.5z"/>
<path class="st15" d="M384.4,194.8L384.4,194.8c5.9,0.9,10,6.4,9.2,12.3l-1.3,8.6c-0.9,5.9-6.4,10-12.3,9.2l0,0
	c-5.9-0.9-10-6.4-9.2-12.3l1.3-8.6C373,198.1,378.5,193.9,384.4,194.8z"/>
<path class="st15" d="M379.4,229.2L379.4,229.2c5.9,0.9,10,6.4,9.2,12.3l-0.9,6.4c-0.9,5.9-6.4,10-12.3,9.2l0,0
	c-5.9-0.9-10-6.4-9.2-12.3l0.9-6.4C367.9,232.4,373.4,228.3,379.4,229.2z"/>
<path class="st15" d="M374.6,261.4L374.6,261.4c5.9,0.9,10,6.4,9.2,12.3l-0.6,4.3c-0.9,5.9-6.4,10-12.3,9.2l0,0
	c-5.9-0.9-10-6.4-9.2-12.3l0.6-4.3C363.2,264.6,368.7,260.5,374.6,261.4z"/>
<path class="st7" d="M501,73.7l45.1,6.6c5.9,0.9,10,6.4,9.2,12.3l-2.5,17.2c-0.9,5.9-6.4,10-12.3,9.2l-45.1-6.6
	c-5.9-0.9-10-6.4-9.2-12.3l2.5-17.2C489.5,76.9,495,72.8,501,73.7z"/>
<path class="st8" d="M499.7,111.9l-6.3,13.3l14.9-12.1"/>
<path class="st9" d="M510.5,93.4c0.5-3.2-2.5-5.3-4.5-2.9c-1.2-2.9-4.7-1.8-5.1,1.4c-0.6,4.3,3.7,8.2,3.7,8.2S509.8,97.7,510.5,93.4
	z"/>
<path class="st9" d="M525.5,95.6c0.5-3.2-2.5-5.3-4.5-2.9c-1.2-2.9-4.7-1.8-5.1,1.4c-0.6,4.3,3.7,8.2,3.7,8.2S524.9,99.9,525.5,95.6
	z"/>
<path class="st9" d="M540.5,97.8c0.5-3.2-2.5-5.3-4.5-2.9c-1.2-2.9-4.7-1.8-5.1,1.4c-0.6,4.3,3.7,8.2,3.7,8.2
	S539.9,102.1,540.5,97.8z"/>
<path class="st14" d="M367.3,41.7c0-3.8-3.2-5.5-4.9-2.8c-1.6-2.7-4.9-1.1-4.9,2.7c-0.1,4.3,4.8,7.7,4.8,7.7S367.2,46.1,367.3,41.7z
	"/>
<path class="st15" d="M480.3,264.5L480.3,264.5c6.7,0.9,11.2,6.6,10.2,12.9l-0.7,4.5c-1,6.2-7.3,10.6-13.9,9.7l0,0
	c-6.7-0.9-11.2-6.6-10.2-12.9l0.7-4.5C467.4,268,473.6,263.6,480.3,264.5z"/>
<path class="st0" d="M65.7,248.1L65.7,248.1c6.8-1,13.2,3.4,14.3,9.8l1.6,9.2c1.1,6.4-3.6,12.3-10.4,13.3l0,0
	c-6.8,1-13.2-3.4-14.3-9.8l-1.6-9.2C54.3,255,58.9,249.1,65.7,248.1z"/>
</svg>
