<?xml version="1.0" encoding="utf-8"?>
<!-- Generator: Adobe Illustrator 28.2.0, SVG Export Plug-In . SVG Version: 6.00 Build 0)  -->
<svg version="1.1" id="レイヤー_1" xmlns="http://www.w3.org/2000/svg" xmlns:xlink="http://www.w3.org/1999/xlink" x="0px"
	 y="0px" viewBox="0 0 420 430" style="enable-background:new 0 0 420 430;" xml:space="preserve">
<style type="text/css">
	.st0{fill:#EDE5DE;fill-opacity:0.62;}
	.st1{fill:none;stroke:#C4A090;stroke-width:1.5;stroke-linecap:round;stroke-dasharray:5,5;}
	.st2{fill:#C4A090;fill-opacity:0.6;}
	.st3{fill:#C4A090;fill-opacity:0.55;}
	.st4{fill:#C4A090;fill-opacity:0.5;}
	.st5{fill:#FFFFFF;fill-opacity:0.9;stroke:#C4A090;stroke-width:1.5;}
	.st6{fill:#D65200;fill-opacity:0.7;stroke:#C4641A;}
	.st7{fill:none;stroke:#D65200;stroke-width:2.2;stroke-linecap:round;}
	.st8{fill:#D65200;fill-opacity:0.7;}
	.st9{fill:none;stroke:#D65200;stroke-width:2;}
	.st10{fill:none;stroke:#D65200;stroke-width:1.8;}
	.st11{fill:#D65200;}
	.st12{fill:#D65200;fill-opacity:0.75;}
	.st13{fill:#FFFFFF;}
	.st14{fill:#FFFFFF;fill-opacity:0.72;}
	.st15{fill:#D65200;fill-opacity:0.6;}
	.st16{fill:#FFFFFF;fill-opacity:0.9;stroke:#C4A090;stroke-width:1.4;}
	.st17{fill:#D65200;fill-opacity:0.55;}
	.st18{fill:none;stroke:#C4641A;}
	.st19{fill:none;stroke:#C4641A;stroke-width:1.5;stroke-linecap:round;}
	.st20{fill:#E0D8D0;}
	.st21{fill:#D65200;fill-opacity:0.4;}
	.st22{fill:#D65200;fill-opacity:0.12;}
	.st23{fill:#D65200;fill-opacity:0.65;}
	.st24{fill:#FFFFFF;fill-opacity:0.88;stroke:#C4A090;stroke-width:1.4;}
	.st25{opacity:0.9;fill:#D65200;enable-background:new    ;}
	.st26{opacity:0.65;fill:#D65200;enable-background:new    ;}
	.st27{fill:#FDF9F6;stroke:#2E1A0E;stroke-width:2.5;}
	.st28{fill:#DDD4CC;}
	.st29{fill:#F9EDE6;}
	.st30{fill:#E8C0A8;}
	.st31{fill:#E0CFC4;}
	.st32{fill:#DBA890;}
	.st33{fill:#C48050;}
</style>
<ellipse class="st0" cx="841.2" cy="248.8" rx="181.3" ry="173.8"/>
<path class="st1" d="M272,196c-17.4-13.1-36.9-26.2-58.7-39.3c-17.4-10.3-44.5-22-81.5-35.1"/>
<path class="st1" d="M270,216c-22.7-5.3-47.6-10.7-74.8-16c-24.9-5.3-57.2-7.3-96.9-6"/>
<path class="st1" d="M270,246c-20,1.3-40.7,0.7-61.9-2s-40.7-1.3-58.4,4"/>
<path class="st1" d="M270,270c-19.4,8-39.3,15.3-59.9,22c-26.6,10.7-58.1,13.3-94.4,8"/>
<path class="st1" d="M266,296c-21.9,17.3-45.6,34-71.1,50c-24.3,14.7-51,18-80.2,10"/>
<path class="st1" d="M276,180c-12-21.2-23.3-42.4-34-63.7c-5.3-13.1-7.3-17.7-6-13.6"/>
<circle class="st2" cx="77.5" cy="151.1" r="3.5"/>
<circle class="st3" cx="141.8" cy="331.8" r="3.5"/>
<circle class="st4" cx="65.7" cy="253.7" r="3.5"/>
<g>
	<path class="st5" d="M93.5,66.9h24c5.5,0,10,4.5,10,10v24c0,5.5-4.5,10-10,10h-24c-5.5,0-10-4.5-10-10v-24
		C83.5,71.4,88,66.9,93.5,66.9z"/>
	<path class="st6" d="M108.5,75.9v21c0,4-4,7-8,5s-5-8-1-10c2-1,6,0,9,3"/>
	<path class="st7" d="M108.5,75.9c1,2,5,5,9,9"/>
	<circle class="st8" cx="118.5" cy="85.9" r="3"/>
</g>
<g transform="translate(46, 208)">
	<path class="st5" d="M-1.2-42.8h24c5.5,0,10,4.5,10,10v24c0,5.5-4.5,10-10,10h-24c-5.5,0-10-4.5-10-10v-24
		C-11.2-38.3-6.7-42.8-1.2-42.8z"/>
	<path class="st9" d="M4.3-33.8h13c3.6,0,6.5,2.9,6.5,6.5v13c0,3.6-2.9,6.5-6.5,6.5h-13c-3.6,0-6.5-2.9-6.5-6.5v-13
		C-2.2-30.9,0.7-33.8,4.3-33.8z"/>
	<circle class="st10" cx="10.8" cy="-20.8" r="6.5"/>
	<circle class="st11" cx="20.8" cy="-30.8" r="2.8"/>
</g>
<g>
	<path class="st5" d="M58.2,334.9h34.7c5.3,0,9.7,4.3,9.7,9.7v23.2c0,5.3-4.3,9.7-9.7,9.7H58.2c-5.3,0-9.7-4.3-9.7-9.7v-23.2
		C48.5,339.2,52.8,334.9,58.2,334.9z"/>
	<path class="st12" d="M64.9,342.6h21.2c3.7,0,6.8,3,6.8,6.8v13.5c0,3.7-3,6.8-6.8,6.8H64.9c-3.7,0-6.8-3-6.8-6.8v-13.5
		C58.2,345.7,61.2,342.6,64.9,342.6z"/>
	<path class="st13" d="M70.2,349.5l13.5,6.8L70.2,363V349.5z"/>
</g>
<g>
	<circle class="st14" cx="119.1" cy="245.1" r="22.3"/>
	<path class="st15" d="M119.1,257c-1.2-2.4-12.1-7.3-12.1-14.5c0-4.8,3.6-8.5,8.5-7.3c2.4,1.2,3.6,2.4,3.6,2.4s1.2-1.2,3.6-2.4
		c4.8-1.2,8.5,2.4,8.5,7.3C131.2,249.8,120.3,254.6,119.1,257z"/>
</g>
<g transform="translate(124, 174)">
	<path class="st16" d="M36.5-23.9c0-5.8-2.9-8.8-8.8-8.8h-35c-5.8,0-8.8,2.9-8.8,8.8v15.8c0,5.8,2.9,8.8,8.8,8.8H12l8.8,10.5
		L17.2,0.7h10.5c5.8,0,8.8-2.9,8.8-8.8V-23.9z"/>
	<circle class="st17" cx="18.1" cy="-16" r="2.5"/>
	<circle class="st17" cx="10.2" cy="-16" r="2.5"/>
	<circle class="st17" cx="2.3" cy="-16" r="2.5"/>
</g>
<g>
	<path class="st16" d="M54.8,276.9h34c9.4,0,17,7.6,17,17l0,0c0,9.4-7.6,17-17,17h-34c-9.4,0-17-7.6-17-17l0,0
		C37.8,284.6,45.4,276.9,54.8,276.9z"/>
	<circle class="st18" cx="56.7" cy="288.3" r="5"/>
	<path class="st19" d="M48.7,302.3c0-6,4-8,8-8s8,2,8,8"/>
	<path class="st20" d="M71.2,286.8h21c1.4,0,2.5,1.1,2.5,2.5l0,0c0,1.4-1.1,2.5-2.5,2.5h-21c-1.4,0-2.5-1.1-2.5-2.5l0,0
		C68.7,287.9,69.9,286.8,71.2,286.8z"/>
	<path class="st21" d="M71.2,295.8h13c1.4,0,2.5,1.1,2.5,2.5l0,0c0,1.4-1.1,2.5-2.5,2.5h-13c-1.4,0-2.5-1.1-2.5-2.5l0,0
		C68.7,296.9,69.9,295.8,71.2,295.8z"/>
</g>
<g>
	<circle class="st14" cx="210" cy="133.5" r="22.3"/>
	<path class="st15" d="M209.9,145.4c-1.2-2.4-12.1-7.3-12.1-14.5c0-4.8,3.6-8.5,8.5-7.3c2.4,1.2,3.6,2.4,3.6,2.4s1.2-1.2,3.6-2.4
		c4.8-1.2,8.5,2.4,8.5,7.3C222,138.1,211.1,143,209.9,145.4z"/>
</g>
<g>
	<path class="st5" d="M217.9,42.1h24c5.5,0,10,4.5,10,10v24c0,5.5-4.5,10-10,10h-24c-5.5,0-10-4.5-10-10v-24
		C207.9,46.6,212.4,42.1,217.9,42.1z"/>
	<circle class="st22" cx="229.5" cy="63.8" r="11.4"/>
	<path class="st23" d="M224.9,57.5l12.3,6.1l-12.3,6.1V57.5z"/>
</g>
<g>
	<circle class="st24" cx="191.8" cy="340.4" r="16"/>
	<path class="st21" d="M185.3,342.7h13c1.4,0,2.5,1.1,2.5,2.5l0,0c0,1.4-1.1,2.5-2.5,2.5h-13c-1.4,0-2.5-1.1-2.5-2.5l0,0
		C182.8,343.8,183.9,342.7,185.3,342.7z"/>
	<path class="st21" d="M185.3,333.9h13c1.4,0,2.5,1.1,2.5,2.5l0,0c0,1.4-1.1,2.5-2.5,2.5h-13c-1.4,0-2.5-1.1-2.5-2.5l0,0
		C182.8,335.1,183.9,333.9,185.3,333.9z"/>
</g>
<path class="st25" d="M379.4,94.3c1.9-3.9-1.1-7.7-4.5-5.8c-0.5-3.9-5.4-3.8-7.3,0.1c-2.4,4.9,1.6,11.7,1.6,11.7
	S377.1,99.1,379.4,94.3z"/>
<path class="st26" d="M383.1,112c1.1-3.6-1.6-6.1-3.9-4c-0.8-3.1-4.4-2.5-5.4,1.2c-1.2,4.1,2.5,8.6,2.5,8.6S381.9,116.2,383.1,112z"
	/>
<path class="st26" d="M398.3,89.1c0.3-3.8-2.8-5.7-4.7-3.2c-1.4-2.8-4.8-1.5-5.1,2.3c-0.4,4.3,4.2,8.1,4.2,8.1
	S397.9,93.5,398.3,89.1z"/>
<circle class="st4" cx="182.2" cy="219" r="3.5"/>
<circle class="st4" cx="249.8" cy="370" r="3.5"/>
<circle class="st4" cx="270.3" cy="84.3" r="3.5"/>
<g>
	<g>
		<path class="st27" d="M320.9,127.3l59.2,8.3c11.5,1.6,19.5,12.3,17.9,23.7l-25.4,181.8c-1.6,11.5-12.3,19.5-23.7,17.9l-59.2-8.3
			c-11.5-1.6-19.5-12.3-17.9-23.7l25.4-181.8C298.8,133.8,309.4,125.7,320.9,127.3z"/>
		<path class="st28" d="M332.3,133.4l35,4.9c2.4,0.4,4.1,2.6,3.8,5l0,0c-0.4,2.4-2.6,4.1-5,3.8l-35-4.9c-2.4-0.4-4.1-2.6-3.8-5l0,0
			C327.7,134.7,329.9,133,332.3,133.4z"/>
		<path class="st29" d="M311.4,147.2l72.3,10.1c3,0.4,5.2,3.2,4.8,6.3l-24.9,178.6c-0.4,3-3.2,5.2-6.3,4.8L285,336.9
			c-3-0.4-5.2-3.2-4.8-6.3L305.1,152C305.5,148.9,308.3,146.8,311.4,147.2z"/>
		<ellipse class="st30" cx="321.3" cy="164.2" rx="11.1" ry="11.1"/>
		<path class="st31" d="M339.1,161.1l36.1,5.1c1.5,0.2,2.6,1.6,2.3,3.1l0,0c-0.2,1.5-1.6,2.6-3.1,2.3l-36.1-5.1
			c-1.5-0.2-2.6-1.6-2.3-3.1l0,0C336.2,162,337.5,160.9,339.1,161.1z"/>
		<path class="st31" d="M337.3,169.8l24.1,3.3c1.2,0.1,2,1.2,1.9,2.5l0,0c-0.1,1.2-1.2,2-2.5,1.9l-24.1-3.3c-1.2-0.1-2-1.2-1.9-2.5
			l0,0C335,170.5,336.1,169.7,337.3,169.8z"/>
		<ellipse class="st8" cx="352.4" cy="305.9" rx="7.7" ry="7.7"/>
		<path class="st30" d="M310.2,181.5l67,9.5c2.2,0.3,3.7,2.6,3.3,5l-8.1,59.2c-0.4,2.4-2.4,4.1-4.6,3.8l-67-9.5
			c-2.2-0.3-3.7-2.6-3.3-5l8.1-59.2C305.9,182.9,308,181.2,310.2,181.5z"/>
		<ellipse class="st32" cx="329.2" cy="218.9" rx="22.1" ry="22.1"/>
		<circle class="st32" cx="354.8" cy="212.5" r="14.4"/>
		<ellipse class="st32" cx="358.6" cy="233.1" rx="10" ry="10"/>
		<circle class="st31" cx="302.9" cy="263.6" r="8.9"/>
		<path class="st31" d="M317.8,260.1l46.3,6.5c1.2,0.1,1.9,1.2,1.8,2.5l0,0c-0.1,1.2-1.2,2-2.4,1.9l-46.3-6.5
			c-1.2-0.1-1.9-1.2-1.8-2.5l0,0C315.6,260.8,316.7,259.9,317.8,260.1z"/>
		<path class="st31" d="M316.8,267.8l33.6,4.8c1.2,0.1,1.9,1.2,1.8,2.5l0,0c-0.1,1.2-1.2,2-2.4,1.9l-33.6-4.8
			c-1.2-0.1-1.9-1.2-1.8-2.5l0,0C314.5,268.5,315.6,267.6,316.8,267.8z"/>
		<path class="st31" d="M295.5,276.3l61.6,8.8c1.1,0.1,1.8,1.2,1.6,2.4l0,0c-0.1,1.2-1.1,2-2.2,1.9l-61.6-8.8
			c-1.1-0.1-1.8-1.2-1.6-2.4l0,0C293.4,277,294.4,276.1,295.5,276.3z"/>
		<path class="st31" d="M294.3,285l46.2,6.7c1.1,0.1,1.8,1.2,1.6,2.4l0,0c-0.1,1.2-1.1,2-2.2,1.9l-46.2-6.6
			c-1.1-0.1-1.8-1.2-1.6-2.4l0,0C292.3,285.7,293.3,284.9,294.3,285z"/>
		<path class="st31" d="M293.1,293.8l34.7,5c1.1,0.1,1.8,1.2,1.6,2.4l0,0c-0.1,1.2-1.1,2-2.2,1.9l-34.7-5c-1.1-0.1-1.8-1.2-1.6-2.4
			l0,0C291.1,294.5,292,293.6,293.1,293.8z"/>
		<path class="st28" d="M299.9,350l39.5,5.5c1.2,0.1,2,1.2,1.9,2.5l0,0c-0.1,1.2-1.2,2-2.5,1.9l-39.5-5.5c-1.2-0.1-2-1.2-1.9-2.5
			l0,0C297.6,350.7,298.7,349.8,299.9,350z"/>
		<path class="st33" d="M398.6,218.6L398.6,218.6c6.1,0.9,10.3,6.4,9.4,12.5l-1.3,8.8c-0.9,6.1-6.4,10.3-12.5,9.4l0,0
			c-6.1-0.9-10.3-6.4-9.4-12.5l1.3-8.8C387,221.9,392.5,217.7,398.6,218.6z"/>
		<path class="st33" d="M388.8,288.6L388.8,288.6c6.1,0.9,10.3,6.4,9.4,12.5l-0.9,6.6c-0.9,6.1-6.4,10.3-12.5,9.4l0,0
			c-6.1-0.9-10.3-6.4-9.4-12.5l0.9-6.6C377.2,292,382.8,287.8,388.8,288.6z"/>
		<path class="st33" d="M384.2,321.5L384.2,321.5c6.1,0.9,10.3,6.4,9.4,12.5l-0.6,4.3c-0.9,6.1-6.4,10.3-12.5,9.4l0,0
			c-6.1-0.9-10.3-6.4-9.4-12.5l0.6-4.3C372.6,324.9,378.2,320.7,384.2,321.5z"/>
	</g>
	<path class="st33" d="M274.5,283.2L274.5,283.2c6.9,1,11.7,7.2,10.7,13.9l-1.4,9.7c-1,6.7-7.3,11.4-14.2,10.4l0,0
		c-6.9-1-11.7-7.2-10.7-13.9l1.4-9.7C261.4,286.9,267.7,282.3,274.5,283.2z"/>
	<path class="st33" d="M393.7,253.6L393.7,253.6c6.1,0.9,10.3,6.4,9.4,12.5l-1.3,8.8c-0.9,6.1-6.4,10.3-12.5,9.4l0,0
		c-6.1-0.9-10.3-6.4-9.4-12.5l1.3-8.8C382.1,257,387.7,252.8,393.7,253.6z"/>
</g>
</svg>
