<?xml version="1.0" encoding="utf-8"?>
<!-- Generator: Adobe Illustrator 28.2.0, SVG Export Plug-In . SVG Version: 6.00 Build 0)  -->
<svg version="1.1" id="レイヤー_1" xmlns="http://www.w3.org/2000/svg" xmlns:xlink="http://www.w3.org/1999/xlink" x="0px"
	 y="0px" viewBox="0 0 440 440" style="enable-background:new 0 0 440 440;" xml:space="preserve">
<style type="text/css">
	.st0{fill:#FDF9F6;stroke:#C4A090;stroke-width:1.8;}
	.st1{fill:#F0E8E0;fill-opacity:0.5;}
	.st2{fill:#DDD0C8;stroke:#C4A090;stroke-width:1.2;}
	.st3{fill:#E8D8D0;fill-opacity:0.4;}
	.st4{fill:#DDD0C8;}
	.st5{fill:#E0CFC4;stroke:#C4A090;stroke-width:1.5;stroke-linejoin:round;}
	.st6{fill:#D4C4B8;stroke:#C4A090;stroke-width:1.2;}
	.st7{fill:#B4C894;fill-opacity:0.92;stroke:#96AD78;stroke-width:1.4;}
	.st8{fill:#B4C894;fill-opacity:0.82;stroke:#96AD78;stroke-width:1.2;}
	.st9{fill:#B4C894;fill-opacity:0.72;stroke:#96AD78;}
	.st10{fill:#FDF9F6;stroke:#C4A090;stroke-width:1.5;}
	.st11{fill:#F5F0EA;stroke:#C4A090;stroke-width:1.5;}
	.st12{fill:none;stroke:#C4A090;stroke-width:1.2;stroke-linecap:round;}
	.st13{fill:#FDF9F6;stroke:#C4A090;stroke-width:1.4;}
	.st14{fill:#B89080;}
	.st15{fill:#E0CFC4;stroke:#C4A090;stroke-width:0.8;}
	.st16{fill:#FDF9F6;stroke:#C4A090;stroke-width:2;}
	.st17{fill:none;stroke:#C4A090;stroke-width:1.2;stroke-opacity:0.55;}
	.st18{fill:#F0E8E0;fill-opacity:0.55;}
	.st19{fill:#D65200;fill-opacity:0.22;}
	.st20{fill:#D65200;fill-opacity:0.42;}
	.st21{fill:#D65200;fill-opacity:0.32;}
	.st22{fill:#C4A090;fill-opacity:0.28;}
	.st23{fill:#C4A090;fill-opacity:0.22;}
	.st24{fill:#D65200;fill-opacity:0.28;}
	.st25{fill:#D65200;fill-opacity:0.38;}
	.st26{fill:#C4A090;fill-opacity:0.32;}
	.st27{fill:#EAD7CE;stroke:#C4A090;stroke-width:0.6;}
	.st28{fill:#EDE5DC;stroke:#C4A090;stroke-width:1.2;}
	.st29{fill:none;stroke:#C4A090;stroke-width:0.8;stroke-opacity:0.4;}
	.st30{fill:#D65200;fill-opacity:0.18;stroke:#C4A090;stroke-width:0.5;}
	.st31{fill:#C4A090;fill-opacity:0.18;stroke:#C4A090;stroke-width:0.5;}
	.st32{fill:#C4A090;fill-opacity:0.14;stroke:#C4A090;stroke-width:0.5;}
	.st33{fill:#D65200;fill-opacity:0.14;stroke:#C4A090;stroke-width:0.5;}
	.st34{fill:#D65200;fill-opacity:0.12;stroke:#C4A090;stroke-width:0.8;}
	.st35{fill:#D65200;fill-opacity:0.5;}
	.st36{fill:#D65200;fill-opacity:0.45;}
	.st37{fill:#C4A090;fill-opacity:0.2;}
	.st38{fill:#E8C0A8;stroke:#C4A090;stroke-width:1.4;stroke-linejoin:round;}
	.st39{fill:none;stroke:#C4A090;stroke-width:0.8;stroke-opacity:0.6;}
	.st40{fill:#F0E8E0;stroke:#C4A090;stroke-width:1.2;}
	.st41{fill:none;stroke:#C4A090;stroke-opacity:0.4;}
	.st42{fill:#FDF9F6;stroke:#C4A090;stroke-width:1.6;}
	.st43{fill:#D0B4A4;fill-opacity:0.4;stroke:#C4A090;stroke-width:0.8;}
	.st44{fill:none;stroke:#C4A090;stroke-width:1.6;stroke-linecap:round;}
	.st45{fill:none;stroke:#C4A090;stroke-width:1.2;stroke-linecap:round;stroke-opacity:0.5;}
</style>
<g transform="rotate(-14, 64, 82)">
	<path class="st0" d="M50.2,34.8l68,0c5.5,0,10,4.5,10,10v96c0,5.5-4.5,10-10,10h-68c-5.5,0-10-4.5-10-10v-96
		C40.2,39.2,44.7,34.8,50.2,34.8z"/>
	<path class="st1" d="M54.2,44.8l60,0c2.8,0,5,2.2,5,5v78c0,2.8-2.2,5-5,5h-60c-2.8,0-5-2.2-5-5l0-78C49.2,47,51.4,44.8,54.2,44.8z"
		/>
	<circle class="st2" cx="84.2" cy="140.8" r="5"/>
	<path class="st3" d="M58.2,52.8h52c1.7,0,3,1.3,3,3v32c0,1.7-1.3,3-3,3h-52c-1.7,0-3-1.3-3-3v-32C55.2,54.1,56.5,52.8,58.2,52.8z"
		/>
	<path class="st4" d="M57.7,96.8h41c1.4,0,2.5,1.1,2.5,2.5l0,0c0,1.4-1.1,2.5-2.5,2.5h-41c-1.4,0-2.5-1.1-2.5-2.5l0,0
		C55.2,97.9,56.3,96.8,57.7,96.8z"/>
	<path class="st4" d="M57.7,105.8l29,0c1.4,0,2.5,1.1,2.5,2.5l0,0c0,1.4-1.1,2.5-2.5,2.5h-29c-1.4,0-2.5-1.1-2.5-2.5l0,0
		C55.2,106.9,56.3,105.8,57.7,105.8z"/>
	<path class="st4" d="M57.7,114.8h35c1.4,0,2.5,1.1,2.5,2.5l0,0c0,1.4-1.1,2.5-2.5,2.5h-35c-1.4,0-2.5-1.1-2.5-2.5l0,0
		C55.2,115.9,56.3,114.8,57.7,114.8z"/>
</g>
<path class="st5" d="M205,136l8,19h14l8-19H205z"/>
<ellipse class="st6" cx="220" cy="137" rx="15" ry="5"/>
<path class="st7" d="M220,136c-7-21-21-47-18-72c3-14,12-10,18,8c6-18,15-22,18-8C241,89,227,115,220,136z"/>
<path class="st8" d="M216,120c-14-12-38-19-41-38c-2-13,8-14,19,2c3-14,13-17,19,2L216,120z"/>
<path class="st9" d="M213,106c-17-8-41-14-44-34c-2-14,9-16,21,0L213,106z"/>
<path class="st8" d="M224,120c14-12,38-19,41-38c2-13-8-14-19,2c-3-14-13-17-19,2L224,120z"/>
<path class="st9" d="M227,106c17-8,41-14,44-34c2-14-9-16-21,0L227,106z"/>
<g transform="rotate(12, 390, 74)">
	<path class="st10" d="M334.7,44.3l55.5,7.7c2.2,0.3,3.7,2.3,3.4,4.5l-10.5,75.3c-0.3,2.2-2.3,3.7-4.5,3.4l-55.5-7.7
		c-2.2-0.3-3.7-2.3-3.4-4.5l10.5-75.3C330.5,45.5,332.5,44,334.7,44.3z"/>
</g>
<g transform="rotate(6, 390, 74)">
	<path class="st11" d="M335.2,46.8l55.5,7.7c2.2,0.3,3.7,2.3,3.4,4.5l-10.5,75.3c-0.3,2.2-2.3,3.7-4.5,3.4l-55.5-7.7
		c-2.2-0.3-3.7-2.3-3.4-4.5l10.5-75.3C331,48,333,46.5,335.2,46.8z"/>
</g>
<path class="st10" d="M336.1,49l55.5,7.7c2.2,0.3,3.7,2.3,3.4,4.5l-10.5,75.3c-0.3,2.2-2.3,3.7-4.5,3.4l-55.5-7.7
	c-2.2-0.3-3.7-2.3-3.4-4.5l10.5-75.3C331.9,50.2,333.9,48.7,336.1,49z"/>
<line class="st12" x1="341.8" y1="66" x2="381.4" y2="71.5"/>
<line class="st12" x1="340.3" y1="76.9" x2="376" y2="81.8"/>
<line class="st12" x1="338.8" y1="87.8" x2="376.4" y2="93"/>
<line class="st12" x1="337.3" y1="98.6" x2="370.9" y2="103.3"/>
<g transform="rotate(-38, 424, 34)">
	<path class="st13" d="M381.7,12.5l2,0.3c1.6,0.2,2.8,1.7,2.6,3.4l-3.9,27.7c-0.2,1.6-1.7,2.8-3.4,2.6l-2-0.3
		c-1.6-0.2-2.8-1.7-2.6-3.4l3.9-27.7C378.6,13.4,380.1,12.3,381.7,12.5z"/>
	<path class="st14" d="M374.1,45.8l2.9,8.5l5.1-7.4L374.1,45.8z"/>
	<path class="st15" d="M380.5,10.3l5,0.7c0.8,0.1,1.4,0.9,1.3,1.7l-0.3,2c-0.1,0.8-0.9,1.4-1.7,1.3l-5-0.7c-0.8-0.1-1.4-0.9-1.3-1.7
		l0.3-2C378.9,10.8,379.7,10.2,380.5,10.3z"/>
</g>
<path class="st16" d="M27,176h152c5,0,9,4,9,9v122c0,5-4,9-9,9H27c-5,0-9-4-9-9V185C18,180,22,176,27,176z"/>
<path class="st16" d="M193,176h16c3.9,0,7,3.1,7,7v126c0,3.9-3.1,7-7,7h-16c-3.9,0-7-3.1-7-7V183C186,179.1,189.1,176,193,176z"/>
<line class="st17" x1="186" y1="176" x2="186" y2="316"/>
<path class="st18" d="M194,179h14c2.8,0,5,2.2,5,5v124c0,2.8-2.2,5-5,5h-14c-2.8,0-5-2.2-5-5V184C189,181.2,191.2,179,194,179z"/>
<path class="st19" d="M195,196h2c1.1,0,2,0.9,2,2v14c0,1.1-0.9,2-2,2h-2c-1.1,0-2-0.9-2-2v-14C193,196.9,193.9,196,195,196z"/>
<path class="st20" d="M203,190h2c1.1,0,2,0.9,2,2v20c0,1.1-0.9,2-2,2h-2c-1.1,0-2-0.9-2-2v-20C201,190.9,201.9,190,203,190z"/>
<path class="st21" d="M195,226h2c1.1,0,2,0.9,2,2v16c0,1.1-0.9,2-2,2h-2c-1.1,0-2-0.9-2-2v-16C193,226.9,193.9,226,195,226z"/>
<path class="st22" d="M203,230h2c1.1,0,2,0.9,2,2v12c0,1.1-0.9,2-2,2h-2c-1.1,0-2-0.9-2-2v-12C201,230.9,201.9,230,203,230z"/>
<path class="st23" d="M195,260h12c1.1,0,2,0.9,2,2v1c0,1.1-0.9,2-2,2h-12c-1.1,0-2-0.9-2-2v-1C193,260.9,193.9,260,195,260z"/>
<path class="st23" d="M195,270h8c1.1,0,2,0.9,2,2v1c0,1.1-0.9,2-2,2h-8c-1.1,0-2-0.9-2-2v-1C193,270.9,193.9,270,195,270z"/>
<path class="st24" d="M195,286h2c1.1,0,2,0.9,2,2v12c0,1.1-0.9,2-2,2h-2c-1.1,0-2-0.9-2-2v-12C193,286.9,193.9,286,195,286z"/>
<path class="st25" d="M203,290h2c1.1,0,2,0.9,2,2v8c0,1.1-0.9,2-2,2h-2c-1.1,0-2-0.9-2-2v-8C201,290.9,201.9,290,203,290z"/>
<circle class="st26" cx="201" cy="308" r="3"/>
<path class="st27" d="M30,187h8c1.1,0,2,0.9,2,2v6c0,1.1-0.9,2-2,2h-8c-1.1,0-2-0.9-2-2v-6C28,187.9,28.9,187,30,187z"/>
<path class="st27" d="M46,187h8c1.1,0,2,0.9,2,2v6c0,1.1-0.9,2-2,2h-8c-1.1,0-2-0.9-2-2v-6C44,187.9,44.9,187,46,187z"/>
<path class="st27" d="M62,187h8c1.1,0,2,0.9,2,2v6c0,1.1-0.9,2-2,2h-8c-1.1,0-2-0.9-2-2v-6C60,187.9,60.9,187,62,187z"/>
<path class="st27" d="M78,187h8c1.1,0,2,0.9,2,2v6c0,1.1-0.9,2-2,2h-8c-1.1,0-2-0.9-2-2v-6C76,187.9,76.9,187,78,187z"/>
<path class="st27" d="M94,187h8c1.1,0,2,0.9,2,2v6c0,1.1-0.9,2-2,2h-8c-1.1,0-2-0.9-2-2v-6C92,187.9,92.9,187,94,187z"/>
<path class="st27" d="M110,187h8c1.1,0,2,0.9,2,2v6c0,1.1-0.9,2-2,2h-8c-1.1,0-2-0.9-2-2v-6C108,187.9,108.9,187,110,187z"/>
<path class="st27" d="M126,187h8c1.1,0,2,0.9,2,2v6c0,1.1-0.9,2-2,2h-8c-1.1,0-2-0.9-2-2v-6C124,187.9,124.9,187,126,187z"/>
<path class="st27" d="M142,187h8c1.1,0,2,0.9,2,2v6c0,1.1-0.9,2-2,2h-8c-1.1,0-2-0.9-2-2v-6C140,187.9,140.9,187,142,187z"/>
<path class="st27" d="M158,187h8c1.1,0,2,0.9,2,2v6c0,1.1-0.9,2-2,2h-8c-1.1,0-2-0.9-2-2v-6C156,187.9,156.9,187,158,187z"/>
<path class="st27" d="M30,202h8c1.1,0,2,0.9,2,2v6c0,1.1-0.9,2-2,2h-8c-1.1,0-2-0.9-2-2v-6C28,202.9,28.9,202,30,202z"/>
<path class="st27" d="M46,202h8c1.1,0,2,0.9,2,2v6c0,1.1-0.9,2-2,2h-8c-1.1,0-2-0.9-2-2v-6C44,202.9,44.9,202,46,202z"/>
<path class="st27" d="M62,202h8c1.1,0,2,0.9,2,2v6c0,1.1-0.9,2-2,2h-8c-1.1,0-2-0.9-2-2v-6C60,202.9,60.9,202,62,202z"/>
<path class="st27" d="M78,202h8c1.1,0,2,0.9,2,2v6c0,1.1-0.9,2-2,2h-8c-1.1,0-2-0.9-2-2v-6C76,202.9,76.9,202,78,202z"/>
<path class="st27" d="M94,202h8c1.1,0,2,0.9,2,2v6c0,1.1-0.9,2-2,2h-8c-1.1,0-2-0.9-2-2v-6C92,202.9,92.9,202,94,202z"/>
<path class="st27" d="M110,202h8c1.1,0,2,0.9,2,2v6c0,1.1-0.9,2-2,2h-8c-1.1,0-2-0.9-2-2v-6C108,202.9,108.9,202,110,202z"/>
<path class="st27" d="M126,202h8c1.1,0,2,0.9,2,2v6c0,1.1-0.9,2-2,2h-8c-1.1,0-2-0.9-2-2v-6C124,202.9,124.9,202,126,202z"/>
<path class="st27" d="M142,202h8c1.1,0,2,0.9,2,2v6c0,1.1-0.9,2-2,2h-8c-1.1,0-2-0.9-2-2v-6C140,202.9,140.9,202,142,202z"/>
<path class="st27" d="M158,202h8c1.1,0,2,0.9,2,2v6c0,1.1-0.9,2-2,2h-8c-1.1,0-2-0.9-2-2v-6C156,202.9,156.9,202,158,202z"/>
<path class="st27" d="M30,217h8c1.1,0,2,0.9,2,2v6c0,1.1-0.9,2-2,2h-8c-1.1,0-2-0.9-2-2v-6C28,217.9,28.9,217,30,217z"/>
<path class="st27" d="M46,217h8c1.1,0,2,0.9,2,2v6c0,1.1-0.9,2-2,2h-8c-1.1,0-2-0.9-2-2v-6C44,217.9,44.9,217,46,217z"/>
<path class="st27" d="M62,217h8c1.1,0,2,0.9,2,2v6c0,1.1-0.9,2-2,2h-8c-1.1,0-2-0.9-2-2v-6C60,217.9,60.9,217,62,217z"/>
<path class="st27" d="M78,217h8c1.1,0,2,0.9,2,2v6c0,1.1-0.9,2-2,2h-8c-1.1,0-2-0.9-2-2v-6C76,217.9,76.9,217,78,217z"/>
<path class="st27" d="M94,217h8c1.1,0,2,0.9,2,2v6c0,1.1-0.9,2-2,2h-8c-1.1,0-2-0.9-2-2v-6C92,217.9,92.9,217,94,217z"/>
<path class="st27" d="M110,217h8c1.1,0,2,0.9,2,2v6c0,1.1-0.9,2-2,2h-8c-1.1,0-2-0.9-2-2v-6C108,217.9,108.9,217,110,217z"/>
<path class="st27" d="M126,217h8c1.1,0,2,0.9,2,2v6c0,1.1-0.9,2-2,2h-8c-1.1,0-2-0.9-2-2v-6C124,217.9,124.9,217,126,217z"/>
<path class="st27" d="M142,217h8c1.1,0,2,0.9,2,2v6c0,1.1-0.9,2-2,2h-8c-1.1,0-2-0.9-2-2v-6C140,217.9,140.9,217,142,217z"/>
<path class="st27" d="M158,217h8c1.1,0,2,0.9,2,2v6c0,1.1-0.9,2-2,2h-8c-1.1,0-2-0.9-2-2v-6C156,217.9,156.9,217,158,217z"/>
<path class="st27" d="M36,232h8c1.1,0,2,0.9,2,2v6c0,1.1-0.9,2-2,2h-8c-1.1,0-2-0.9-2-2v-6C34,232.9,34.9,232,36,232z"/>
<path class="st27" d="M52,232h8c1.1,0,2,0.9,2,2v6c0,1.1-0.9,2-2,2h-8c-1.1,0-2-0.9-2-2v-6C50,232.9,50.9,232,52,232z"/>
<path class="st27" d="M68,232h8c1.1,0,2,0.9,2,2v6c0,1.1-0.9,2-2,2h-8c-1.1,0-2-0.9-2-2v-6C66,232.9,66.9,232,68,232z"/>
<path class="st27" d="M84,232h8c1.1,0,2,0.9,2,2v6c0,1.1-0.9,2-2,2h-8c-1.1,0-2-0.9-2-2v-6C82,232.9,82.9,232,84,232z"/>
<path class="st27" d="M100,232h8c1.1,0,2,0.9,2,2v6c0,1.1-0.9,2-2,2h-8c-1.1,0-2-0.9-2-2v-6C98,232.9,98.9,232,100,232z"/>
<path class="st27" d="M116,232h8c1.1,0,2,0.9,2,2v6c0,1.1-0.9,2-2,2h-8c-1.1,0-2-0.9-2-2v-6C114,232.9,114.9,232,116,232z"/>
<path class="st27" d="M132,232h8c1.1,0,2,0.9,2,2v6c0,1.1-0.9,2-2,2h-8c-1.1,0-2-0.9-2-2v-6C130,232.9,130.9,232,132,232z"/>
<path class="st27" d="M148,232h8c1.1,0,2,0.9,2,2v6c0,1.1-0.9,2-2,2h-8c-1.1,0-2-0.9-2-2v-6C146,232.9,146.9,232,148,232z"/>
<path class="st27" d="M30,247h8c1.1,0,2,0.9,2,2v6c0,1.1-0.9,2-2,2h-8c-1.1,0-2-0.9-2-2v-6C28,247.9,28.9,247,30,247z"/>
<path class="st27" d="M46,247h8c1.1,0,2,0.9,2,2v6c0,1.1-0.9,2-2,2h-8c-1.1,0-2-0.9-2-2v-6C44,247.9,44.9,247,46,247z"/>
<path class="st27" d="M62,247h8c1.1,0,2,0.9,2,2v6c0,1.1-0.9,2-2,2h-8c-1.1,0-2-0.9-2-2v-6C60,247.9,60.9,247,62,247z"/>
<path class="st27" d="M78,247h8c1.1,0,2,0.9,2,2v6c0,1.1-0.9,2-2,2h-8c-1.1,0-2-0.9-2-2v-6C76,247.9,76.9,247,78,247z"/>
<path class="st27" d="M94,247h8c1.1,0,2,0.9,2,2v6c0,1.1-0.9,2-2,2h-8c-1.1,0-2-0.9-2-2v-6C92,247.9,92.9,247,94,247z"/>
<path class="st27" d="M110,247h8c1.1,0,2,0.9,2,2v6c0,1.1-0.9,2-2,2h-8c-1.1,0-2-0.9-2-2v-6C108,247.9,108.9,247,110,247z"/>
<path class="st27" d="M126,247h8c1.1,0,2,0.9,2,2v6c0,1.1-0.9,2-2,2h-8c-1.1,0-2-0.9-2-2v-6C124,247.9,124.9,247,126,247z"/>
<path class="st27" d="M142,247h8c1.1,0,2,0.9,2,2v6c0,1.1-0.9,2-2,2h-8c-1.1,0-2-0.9-2-2v-6C140,247.9,140.9,247,142,247z"/>
<path class="st27" d="M158,247h8c1.1,0,2,0.9,2,2v6c0,1.1-0.9,2-2,2h-8c-1.1,0-2-0.9-2-2v-6C156,247.9,156.9,247,158,247z"/>
<path class="st27" d="M30,262h8c1.1,0,2,0.9,2,2v6c0,1.1-0.9,2-2,2h-8c-1.1,0-2-0.9-2-2v-6C28,262.9,28.9,262,30,262z"/>
<path class="st27" d="M46,262h8c1.1,0,2,0.9,2,2v6c0,1.1-0.9,2-2,2h-8c-1.1,0-2-0.9-2-2v-6C44,262.9,44.9,262,46,262z"/>
<path class="st27" d="M62,262h62c1.1,0,2,0.9,2,2v6c0,1.1-0.9,2-2,2H62c-1.1,0-2-0.9-2-2v-6C60,262.9,60.9,262,62,262z"/>
<path class="st27" d="M132,262h8c1.1,0,2,0.9,2,2v6c0,1.1-0.9,2-2,2h-8c-1.1,0-2-0.9-2-2v-6C130,262.9,130.9,262,132,262z"/>
<path class="st27" d="M148,262h8c1.1,0,2,0.9,2,2v6c0,1.1-0.9,2-2,2h-8c-1.1,0-2-0.9-2-2v-6C146,262.9,146.9,262,148,262z"/>
<path class="st28" d="M69,280h46c2.8,0,5,2.2,5,5v16c0,2.8-2.2,5-5,5H69c-2.8,0-5-2.2-5-5v-16C64,282.2,66.2,280,69,280z"/>
<line class="st29" x1="64" y1="293" x2="120" y2="293"/>
<path class="st16" d="M231,176h16c3.9,0,7,3.1,7,7v126c0,3.9-3.1,7-7,7h-16c-3.9,0-7-3.1-7-7V183C224,179.1,227.1,176,231,176z"/>
<line class="st17" x1="254" y1="176" x2="254" y2="316"/>
<path class="st18" d="M232,179h14c2.8,0,5,2.2,5,5v124c0,2.8-2.2,5-5,5h-14c-2.8,0-5-2.2-5-5V184C227,181.2,229.2,179,232,179z"/>
<path class="st30" d="M232,196h4c1.1,0,2,0.9,2,2v4c0,1.1-0.9,2-2,2h-4c-1.1,0-2-0.9-2-2v-4C230,196.9,230.9,196,232,196z"/>
<path class="st31" d="M242,196h4c1.1,0,2,0.9,2,2v4c0,1.1-0.9,2-2,2h-4c-1.1,0-2-0.9-2-2v-4C240,196.9,240.9,196,242,196z"/>
<path class="st32" d="M232,207h4c1.1,0,2,0.9,2,2v4c0,1.1-0.9,2-2,2h-4c-1.1,0-2-0.9-2-2v-4C230,207.9,230.9,207,232,207z"/>
<path class="st33" d="M242,207h4c1.1,0,2,0.9,2,2v4c0,1.1-0.9,2-2,2h-4c-1.1,0-2-0.9-2-2v-4C240,207.9,240.9,207,242,207z"/>
<circle class="st34" cx="239" cy="237" r="10"/>
<path class="st35" d="M236,233l9,4l-9,4V233z"/>
<path class="st36" d="M238,265c0-2-2-4-4-2c-2-2-4,0-4,2s4,6,4,6S238,267,238,265z"/>
<path class="st37" d="M232,280h14c1.1,0,2,0.9,2,2l0,0c0,1.1-0.9,2-2,2h-14c-1.1,0-2-0.9-2-2l0,0C230,280.9,230.9,280,232,280z"/>
<path class="st37" d="M232,289h10c1.1,0,2,0.9,2,2l0,0c0,1.1-0.9,2-2,2h-10c-1.1,0-2-0.9-2-2l0,0C230,289.9,230.9,289,232,289z"/>
<path class="st37" d="M232,298h12c1.1,0,2,0.9,2,2l0,0c0,1.1-0.9,2-2,2h-12c-1.1,0-2-0.9-2-2l0,0C230,298.9,230.9,298,232,298z"/>
<circle class="st26" cx="239" cy="308" r="3"/>
<path class="st16" d="M261,176h152c5,0,9,4,9,9v122c0,5-4,9-9,9H261c-5,0-9-4-9-9V185C252,180,256,176,261,176z"/>
<path class="st27" d="M264,187h8c1.1,0,2,0.9,2,2v6c0,1.1-0.9,2-2,2h-8c-1.1,0-2-0.9-2-2v-6C262,187.9,262.9,187,264,187z"/>
<path class="st27" d="M280,187h8c1.1,0,2,0.9,2,2v6c0,1.1-0.9,2-2,2h-8c-1.1,0-2-0.9-2-2v-6C278,187.9,278.9,187,280,187z"/>
<path class="st27" d="M296,187h8c1.1,0,2,0.9,2,2v6c0,1.1-0.9,2-2,2h-8c-1.1,0-2-0.9-2-2v-6C294,187.9,294.9,187,296,187z"/>
<path class="st27" d="M312,187h8c1.1,0,2,0.9,2,2v6c0,1.1-0.9,2-2,2h-8c-1.1,0-2-0.9-2-2v-6C310,187.9,310.9,187,312,187z"/>
<path class="st27" d="M328,187h8c1.1,0,2,0.9,2,2v6c0,1.1-0.9,2-2,2h-8c-1.1,0-2-0.9-2-2v-6C326,187.9,326.9,187,328,187z"/>
<path class="st27" d="M344,187h8c1.1,0,2,0.9,2,2v6c0,1.1-0.9,2-2,2h-8c-1.1,0-2-0.9-2-2v-6C342,187.9,342.9,187,344,187z"/>
<path class="st27" d="M360,187h8c1.1,0,2,0.9,2,2v6c0,1.1-0.9,2-2,2h-8c-1.1,0-2-0.9-2-2v-6C358,187.9,358.9,187,360,187z"/>
<path class="st27" d="M376,187h8c1.1,0,2,0.9,2,2v6c0,1.1-0.9,2-2,2h-8c-1.1,0-2-0.9-2-2v-6C374,187.9,374.9,187,376,187z"/>
<path class="st27" d="M392,187h8c1.1,0,2,0.9,2,2v6c0,1.1-0.9,2-2,2h-8c-1.1,0-2-0.9-2-2v-6C390,187.9,390.9,187,392,187z"/>
<path class="st27" d="M264,202h8c1.1,0,2,0.9,2,2v6c0,1.1-0.9,2-2,2h-8c-1.1,0-2-0.9-2-2v-6C262,202.9,262.9,202,264,202z"/>
<path class="st27" d="M280,202h8c1.1,0,2,0.9,2,2v6c0,1.1-0.9,2-2,2h-8c-1.1,0-2-0.9-2-2v-6C278,202.9,278.9,202,280,202z"/>
<path class="st27" d="M296,202h8c1.1,0,2,0.9,2,2v6c0,1.1-0.9,2-2,2h-8c-1.1,0-2-0.9-2-2v-6C294,202.9,294.9,202,296,202z"/>
<path class="st27" d="M312,202h8c1.1,0,2,0.9,2,2v6c0,1.1-0.9,2-2,2h-8c-1.1,0-2-0.9-2-2v-6C310,202.9,310.9,202,312,202z"/>
<path class="st27" d="M328,202h8c1.1,0,2,0.9,2,2v6c0,1.1-0.9,2-2,2h-8c-1.1,0-2-0.9-2-2v-6C326,202.9,326.9,202,328,202z"/>
<path class="st27" d="M344,202h8c1.1,0,2,0.9,2,2v6c0,1.1-0.9,2-2,2h-8c-1.1,0-2-0.9-2-2v-6C342,202.9,342.9,202,344,202z"/>
<path class="st27" d="M360,202h8c1.1,0,2,0.9,2,2v6c0,1.1-0.9,2-2,2h-8c-1.1,0-2-0.9-2-2v-6C358,202.9,358.9,202,360,202z"/>
<path class="st27" d="M376,202h8c1.1,0,2,0.9,2,2v6c0,1.1-0.9,2-2,2h-8c-1.1,0-2-0.9-2-2v-6C374,202.9,374.9,202,376,202z"/>
<path class="st27" d="M392,202h8c1.1,0,2,0.9,2,2v6c0,1.1-0.9,2-2,2h-8c-1.1,0-2-0.9-2-2v-6C390,202.9,390.9,202,392,202z"/>
<path class="st27" d="M264,217h8c1.1,0,2,0.9,2,2v6c0,1.1-0.9,2-2,2h-8c-1.1,0-2-0.9-2-2v-6C262,217.9,262.9,217,264,217z"/>
<path class="st27" d="M280,217h8c1.1,0,2,0.9,2,2v6c0,1.1-0.9,2-2,2h-8c-1.1,0-2-0.9-2-2v-6C278,217.9,278.9,217,280,217z"/>
<path class="st27" d="M296,217h8c1.1,0,2,0.9,2,2v6c0,1.1-0.9,2-2,2h-8c-1.1,0-2-0.9-2-2v-6C294,217.9,294.9,217,296,217z"/>
<path class="st27" d="M312,217h8c1.1,0,2,0.9,2,2v6c0,1.1-0.9,2-2,2h-8c-1.1,0-2-0.9-2-2v-6C310,217.9,310.9,217,312,217z"/>
<path class="st27" d="M328,217h8c1.1,0,2,0.9,2,2v6c0,1.1-0.9,2-2,2h-8c-1.1,0-2-0.9-2-2v-6C326,217.9,326.9,217,328,217z"/>
<path class="st27" d="M344,217h8c1.1,0,2,0.9,2,2v6c0,1.1-0.9,2-2,2h-8c-1.1,0-2-0.9-2-2v-6C342,217.9,342.9,217,344,217z"/>
<path class="st27" d="M360,217h8c1.1,0,2,0.9,2,2v6c0,1.1-0.9,2-2,2h-8c-1.1,0-2-0.9-2-2v-6C358,217.9,358.9,217,360,217z"/>
<path class="st27" d="M376,217h8c1.1,0,2,0.9,2,2v6c0,1.1-0.9,2-2,2h-8c-1.1,0-2-0.9-2-2v-6C374,217.9,374.9,217,376,217z"/>
<path class="st27" d="M392,217h8c1.1,0,2,0.9,2,2v6c0,1.1-0.9,2-2,2h-8c-1.1,0-2-0.9-2-2v-6C390,217.9,390.9,217,392,217z"/>
<path class="st27" d="M270,232h8c1.1,0,2,0.9,2,2v6c0,1.1-0.9,2-2,2h-8c-1.1,0-2-0.9-2-2v-6C268,232.9,268.9,232,270,232z"/>
<path class="st27" d="M286,232h8c1.1,0,2,0.9,2,2v6c0,1.1-0.9,2-2,2h-8c-1.1,0-2-0.9-2-2v-6C284,232.9,284.9,232,286,232z"/>
<path class="st27" d="M302,232h8c1.1,0,2,0.9,2,2v6c0,1.1-0.9,2-2,2h-8c-1.1,0-2-0.9-2-2v-6C300,232.9,300.9,232,302,232z"/>
<path class="st27" d="M318,232h8c1.1,0,2,0.9,2,2v6c0,1.1-0.9,2-2,2h-8c-1.1,0-2-0.9-2-2v-6C316,232.9,316.9,232,318,232z"/>
<path class="st27" d="M334,232h8c1.1,0,2,0.9,2,2v6c0,1.1-0.9,2-2,2h-8c-1.1,0-2-0.9-2-2v-6C332,232.9,332.9,232,334,232z"/>
<path class="st27" d="M350,232h8c1.1,0,2,0.9,2,2v6c0,1.1-0.9,2-2,2h-8c-1.1,0-2-0.9-2-2v-6C348,232.9,348.9,232,350,232z"/>
<path class="st27" d="M366,232h8c1.1,0,2,0.9,2,2v6c0,1.1-0.9,2-2,2h-8c-1.1,0-2-0.9-2-2v-6C364,232.9,364.9,232,366,232z"/>
<path class="st27" d="M382,232h8c1.1,0,2,0.9,2,2v6c0,1.1-0.9,2-2,2h-8c-1.1,0-2-0.9-2-2v-6C380,232.9,380.9,232,382,232z"/>
<path class="st27" d="M264,247h8c1.1,0,2,0.9,2,2v6c0,1.1-0.9,2-2,2h-8c-1.1,0-2-0.9-2-2v-6C262,247.9,262.9,247,264,247z"/>
<path class="st27" d="M280,247h8c1.1,0,2,0.9,2,2v6c0,1.1-0.9,2-2,2h-8c-1.1,0-2-0.9-2-2v-6C278,247.9,278.9,247,280,247z"/>
<path class="st27" d="M296,247h8c1.1,0,2,0.9,2,2v6c0,1.1-0.9,2-2,2h-8c-1.1,0-2-0.9-2-2v-6C294,247.9,294.9,247,296,247z"/>
<path class="st27" d="M312,247h8c1.1,0,2,0.9,2,2v6c0,1.1-0.9,2-2,2h-8c-1.1,0-2-0.9-2-2v-6C310,247.9,310.9,247,312,247z"/>
<path class="st27" d="M328,247h8c1.1,0,2,0.9,2,2v6c0,1.1-0.9,2-2,2h-8c-1.1,0-2-0.9-2-2v-6C326,247.9,326.9,247,328,247z"/>
<path class="st27" d="M344,247h8c1.1,0,2,0.9,2,2v6c0,1.1-0.9,2-2,2h-8c-1.1,0-2-0.9-2-2v-6C342,247.9,342.9,247,344,247z"/>
<path class="st27" d="M360,247h8c1.1,0,2,0.9,2,2v6c0,1.1-0.9,2-2,2h-8c-1.1,0-2-0.9-2-2v-6C358,247.9,358.9,247,360,247z"/>
<path class="st27" d="M376,247h8c1.1,0,2,0.9,2,2v6c0,1.1-0.9,2-2,2h-8c-1.1,0-2-0.9-2-2v-6C374,247.9,374.9,247,376,247z"/>
<path class="st27" d="M392,247h8c1.1,0,2,0.9,2,2v6c0,1.1-0.9,2-2,2h-8c-1.1,0-2-0.9-2-2v-6C390,247.9,390.9,247,392,247z"/>
<path class="st27" d="M264,262h8c1.1,0,2,0.9,2,2v6c0,1.1-0.9,2-2,2h-8c-1.1,0-2-0.9-2-2v-6C262,262.9,262.9,262,264,262z"/>
<path class="st27" d="M280,262h8c1.1,0,2,0.9,2,2v6c0,1.1-0.9,2-2,2h-8c-1.1,0-2-0.9-2-2v-6C278,262.9,278.9,262,280,262z"/>
<path class="st27" d="M296,262h62c1.1,0,2,0.9,2,2v6c0,1.1-0.9,2-2,2h-62c-1.1,0-2-0.9-2-2v-6C294,262.9,294.9,262,296,262z"/>
<path class="st27" d="M366,262h8c1.1,0,2,0.9,2,2v6c0,1.1-0.9,2-2,2h-8c-1.1,0-2-0.9-2-2v-6C364,262.9,364.9,262,366,262z"/>
<path class="st27" d="M382,262h8c1.1,0,2,0.9,2,2v6c0,1.1-0.9,2-2,2h-8c-1.1,0-2-0.9-2-2v-6C380,262.9,380.9,262,382,262z"/>
<path class="st28" d="M325,280h46c2.8,0,5,2.2,5,5v16c0,2.8-2.2,5-5,5h-46c-2.8,0-5-2.2-5-5v-16C320,282.2,322.2,280,325,280z"/>
<line class="st29" x1="320" y1="293" x2="376" y2="293"/>
<path class="st38" d="M-92.7,199.9c18-4,30-7,38-9l102-2c8,0,8,12,0,12l-102,2h106c8,0,8,12,0,12l-106,2h104c8,0,8,12,0,12l-104,2
	l90,1c7,0,7,11,0,11l-90,2c-8,2-20,5-38,8V199.9z"/>
<line class="st39" x1="28" y1="205" x2="28" y2="207"/>
<line class="st39" x1="28" y1="219" x2="28" y2="221"/>
<line class="st39" x1="28" y1="233" x2="28" y2="235"/>
<path class="st40" d="M-94.7,252.9h26c3.3,0,6,2.7,6,6v32c0,3.3-2.7,6-6,6h-26c-3.3,0-6-2.7-6-6v-32
	C-100.7,255.6-98,252.9-94.7,252.9z"/>
<line class="st41" x1="-100.7" y1="272.9" x2="-62.7" y2="272.9"/>
<path class="st38" d="M-92.7,256.9c18-4,30-7,38-9l98-2c8,0,8,12,0,12l-98,2h100c8,0,8,12,0,12l-100,2h98c8,0,8,12,0,12l-98,2l86,1
	c6,0,6,11,0,11l-86,1c-8,2-20,5-38,8V256.9z"/>
<line class="st39" x1="28" y1="262" x2="28" y2="264"/>
<line class="st39" x1="28" y1="276" x2="28" y2="278"/>
<line class="st39" x1="28" y1="290" x2="28" y2="292"/>
<path class="st38" d="M530.2,200.7c-18-4-30-7-38-9l-102-2c-8,0-8,12,0,12l102,2h-106c-8,0-8,12,0,12l106,2h-104c-8,0-8,12,0,12
	l104,2l-90,1c-7,0-7,11,0,11l90,2c8,2,20,5,38,8V200.7z"/>
<line class="st39" x1="412" y1="205" x2="412" y2="207"/>
<line class="st39" x1="412" y1="219" x2="412" y2="221"/>
<line class="st39" x1="412" y1="233" x2="412" y2="235"/>
<path class="st40" d="M506.2,253.7h26c3.3,0,6,2.7,6,6v32c0,3.3-2.7,6-6,6h-26c-3.3,0-6-2.7-6-6v-32
	C500.2,256.4,502.9,253.7,506.2,253.7z"/>
<line class="st41" x1="500.2" y1="273.7" x2="538.2" y2="273.7"/>
<path class="st38" d="M530.2,257.7c-18-4-30-7-38-9l-98-2c-8,0-8,12,0,12l98,2h-100c-8,0-8,12,0,12l100,2h-98c-8,0-8,12,0,12l98,2
	l-86,1c-6,0-6,11,0,11l86,1c8,2,20,5,38,8V257.7z"/>
<line class="st39" x1="412" y1="262" x2="412" y2="264"/>
<line class="st39" x1="412" y1="276" x2="412" y2="278"/>
<line class="st39" x1="412" y1="290" x2="412" y2="292"/>
<g transform="rotate(-18, 58, 390)">
	<path class="st0" d="M370.4,442.3l25.9,11.4c2.8,1.2,3.7,4.7,2.1,7.7l-25.9,47.5c-1.7,3-5.3,4.5-8.1,3.3l-25.9-11.4
		c-2.8-1.2-3.7-4.7-2.1-7.7l25.9-47.5C364,442.5,367.6,441.1,370.4,442.3z"/>
	<path class="st1" d="M369.6,450.2l20.3,8.9c1.6,0.7,2.1,2.6,1.2,4.3l-19.9,36.5c-0.9,1.7-2.9,2.5-4.5,1.8l-20.3-8.9
		c-1.6-0.7-2.1-2.6-1.2-4.3l19.9-36.5C366,450.4,368,449.6,369.6,450.2z"/>
	<ellipse transform="matrix(0.443 -0.8965 0.8965 0.443 -250.9254 596.7886)" class="st2" cx="354.8" cy="500.3" rx="3.5" ry="3"/>
	<path class="st3" d="M368.4,455l18,7.9c0.9,0.4,1.2,1.6,0.7,2.6l-6.6,12.2c-0.6,1-1.8,1.5-2.7,1.1l-18-7.9
		c-0.9-0.4-1.2-1.6-0.7-2.6l6.6-12.2C366.2,455.1,367.4,454.6,368.4,455z"/>
</g>
<ellipse class="st13" cx="70.8" cy="401.2" rx="32" ry="10"/>
<path class="st42" d="M42.8,373.2c0,17.3,9.3,26,28,26s28-8.7,28-26c0-8-9.3-12-28-12S42.8,365.2,42.8,373.2z"/>
<ellipse class="st43" cx="70.8" cy="362.2" rx="24" ry="8"/>
<path class="st44" d="M98.8,375.2c8,0,12,3.7,12,11s-4,11-12,11"/>
<path class="st45" d="M62.8,355.2c1.3-6.7,1-12.7-1-18"/>
<path class="st45" d="M71.8,353.2c1.3-6.7,1-12.7-1-18"/>
<path class="st45" d="M80.8,355.2c1.3-6.7,1-12.7-1-18"/>
<ellipse class="st13" cx="167.6" cy="408.2" rx="32" ry="10"/>
<path class="st42" d="M139.6,380.2c0,17.3,9.3,26,28,26s28-8.7,28-26c0-8-9.3-12-28-12S139.6,372.2,139.6,380.2z"/>
<ellipse class="st43" cx="167.6" cy="369.2" rx="24" ry="8"/>
<path class="st44" d="M139.6,382.2c-8,0-12,3.7-12,11s4,11,12,11"/>
<path class="st45" d="M159.6,362.2c1.3-6.7,1-12.7-1-18"/>
<path class="st45" d="M168.6,360.2c1.3-6.7,1-12.7-1-18"/>
<path class="st45" d="M177.6,362.2c1.3-6.7,1-12.7-1-18"/>
</svg>
